<svg id="visual" viewBox="0 0 900 600" width="900" height="600" xmlns="http://www.w3.org/2000/svg" xmlns:xlink="http://www.w3.org/1999/xlink" version="1.1"><path d="M872 600L836 550L827 500L827 450L836 400L845 350L872 300L863 250L836 200L872 150L854 100L872 50L836 0L900 0L900 50L900 100L900 150L900 200L900 250L900 300L900 350L900 400L900 450L900 500L900 550L900 600Z" fill="#d1d1d1"></path><path d="M602 600L629 550L557 500L701 450L602 400L692 350L710 300L620 250L674 200L566 150L620 100L764 50L719 0L837 0L873 50L855 100L873 150L837 200L864 250L873 300L846 350L837 400L828 450L828 500L837 550L873 600Z" fill="#dfdfdf"></path><path d="M548 600L602 550L476 500L602 450L512 400L629 350L647 300L575 250L575 200L512 150L548 100L674 50L629 0L720 0L765 50L621 100L567 150L675 200L621 250L711 300L693 350L603 400L702 450L558 500L630 550L603 600Z" fill="#eeeeee"></path><path d="M476 600L548 550L449 500L530 450L449 400L593 350L593 300L512 250L548 200L458 150L512 100L611 50L566 0L630 0L675 50L549 100L513 150L576 200L576 250L648 300L630 350L513 400L603 450L477 500L603 550L549 600Z" fill="#fcfcfc"></path><path d="M386 600L341 550L377 500L377 450L323 400L467 350L413 300L404 250L422 200L395 150L368 100L431 50L431 0L567 0L612 50L513 100L459 150L549 200L513 250L594 300L594 350L450 400L531 450L450 500L549 550L477 600Z" fill="#ffffff"></path><path d="M278 600L296 550L233 500L260 450L215 400L368 350L368 300L314 250L368 200L287 150L242 100L386 50L305 0L432 0L432 50L369 100L396 150L423 200L405 250L414 300L468 350L324 400L378 450L378 500L342 550L387 600Z" fill="#fcfcfc"></path><path d="M161 600L125 550L80 500L71 450L125 400L152 350L134 300L179 250L107 200L134 150L134 100L170 50L71 0L306 0L387 50L243 100L288 150L369 200L315 250L369 300L369 350L216 400L261 450L234 500L297 550L279 600Z" fill="#eeeeee"></path><path d="M62 600L71 550L26 500L26 450L26 400L80 350L71 300L71 250L71 200L62 150L53 100L80 50L35 0L72 0L171 50L135 100L135 150L108 200L180 250L135 300L153 350L126 400L72 450L81 500L126 550L162 600Z" fill="#dfdfdf"></path><path d="M0 600L0 550L0 500L0 450L0 400L0 350L0 300L0 250L0 200L0 150L0 100L0 50L0 0L36 0L81 50L54 100L63 150L72 200L72 250L72 300L81 350L27 400L27 450L27 500L72 550L63 600Z" fill="#d1d1d1"></path></svg>