<svg id="visual" viewBox="0 0 900 450" width="900" height="450" xmlns="http://www.w3.org/2000/svg" xmlns:xlink="http://www.w3.org/1999/xlink" version="1.1"><path d="M854 450L845 394L854 338L854 281L845 225L854 169L872 113L881 56L881 0L900 0L900 56L900 113L900 169L900 225L900 281L900 338L900 394L900 450Z" fill="#227093"></path><path d="M773 450L737 394L737 338L818 281L800 225L746 169L836 113L809 56L836 0L882 0L882 56L873 113L855 169L846 225L855 281L855 338L846 394L855 450Z" fill="#267da4"></path><path d="M692 450L656 394L701 338L755 281L728 225L710 169L791 113L719 56L746 0L837 0L810 56L837 113L747 169L801 225L819 281L738 338L738 394L774 450Z" fill="#2a8ab5"></path><path d="M638 450L611 394L647 338L728 281L674 225L683 169L773 113L701 56L701 0L747 0L720 56L792 113L711 169L729 225L756 281L702 338L657 394L693 450Z" fill="#2e98c7"></path><path d="M458 450L449 394L476 338L476 281L467 225L584 169L656 113L575 56L494 0L702 0L702 56L774 113L684 169L675 225L729 281L648 338L612 394L639 450Z" fill="#32a6d9"></path><path d="M305 450L287 394L332 338L341 281L305 225L368 169L368 113L350 56L305 0L495 0L576 56L657 113L585 169L468 225L477 281L477 338L450 394L459 450Z" fill="#34ace0"></path><path d="M296 450L260 394L323 338L305 281L287 225L359 169L314 113L332 56L260 0L306 0L351 56L369 113L369 169L306 225L342 281L333 338L288 394L306 450Z" fill="#34ace0"></path><path d="M224 450L179 394L233 338L233 281L242 225L215 169L224 113L170 56L206 0L261 0L333 56L315 113L360 169L288 225L306 281L324 338L261 394L297 450Z" fill="#32a6d9"></path><path d="M161 450L152 394L179 338L170 281L179 225L179 169L188 113L125 56L152 0L207 0L171 56L225 113L216 169L243 225L234 281L234 338L180 394L225 450Z" fill="#2e98c7"></path><path d="M107 450L107 394L161 338L89 281L116 225L161 169L143 113L98 56L107 0L153 0L126 56L189 113L180 169L180 225L171 281L180 338L153 394L162 450Z" fill="#2a8ab5"></path><path d="M44 450L71 394L71 338L44 281L17 225L53 169L35 113L44 56L17 0L108 0L99 56L144 113L162 169L117 225L90 281L162 338L108 394L108 450Z" fill="#267da4"></path><path d="M0 450L0 394L0 338L0 281L0 225L0 169L0 113L0 56L0 0L18 0L45 56L36 113L54 169L18 225L45 281L72 338L72 394L45 450Z" fill="#227093"></path></svg>